<mxfile host="65bd71144e">
    <diagram id="-4FPFwM3FRz1TQWsinK4" name="Страница 1">
        <mxGraphModel dx="709" dy="1104" grid="1" gridSize="10" guides="1" tooltips="1" connect="1" arrows="1" fold="1" page="1" pageScale="1" pageWidth="827" pageHeight="1169" math="0" shadow="0">
            <root>
                <mxCell id="0"/>
                <mxCell id="1" parent="0"/>
                <mxCell id="115" value="Структура пакета конфигурации&lt;br&gt;CFG_PACK_t" style="text;html=1;strokeColor=none;fillColor=none;align=center;verticalAlign=middle;whiteSpace=wrap;rounded=0;" parent="1" vertex="1">
                    <mxGeometry x="438" y="42" width="150" height="30" as="geometry"/>
                </mxCell>
                <mxCell id="153" value="" style="shape=table;startSize=0;container=1;collapsible=0;childLayout=tableLayout;" parent="1" vertex="1">
                    <mxGeometry x="338" y="92" width="282" height="142" as="geometry"/>
                </mxCell>
                <mxCell id="154" value="" style="shape=tableRow;horizontal=0;startSize=0;swimlaneHead=0;swimlaneBody=0;top=0;left=0;bottom=0;right=0;collapsible=0;dropTarget=0;fillColor=none;points=[[0,0.5],[1,0.5]];portConstraint=eastwest;" parent="153" vertex="1">
                    <mxGeometry width="282" height="24" as="geometry"/>
                </mxCell>
                <mxCell id="155" value="ID" style="shape=partialRectangle;html=1;whiteSpace=wrap;connectable=0;overflow=hidden;fillColor=none;top=0;left=0;bottom=0;right=0;pointerEvents=1;" parent="154" vertex="1">
                    <mxGeometry width="96" height="24" as="geometry">
                        <mxRectangle width="96" height="24" as="alternateBounds"/>
                    </mxGeometry>
                </mxCell>
                <mxCell id="156" value="SIZE" style="shape=partialRectangle;html=1;whiteSpace=wrap;connectable=0;overflow=hidden;fillColor=none;top=0;left=0;bottom=0;right=0;pointerEvents=1;" parent="154" vertex="1">
                    <mxGeometry x="96" width="92" height="24" as="geometry">
                        <mxRectangle width="92" height="24" as="alternateBounds"/>
                    </mxGeometry>
                </mxCell>
                <mxCell id="157" value="DATA" style="shape=partialRectangle;html=1;whiteSpace=wrap;connectable=0;overflow=hidden;fillColor=none;top=0;left=0;bottom=0;right=0;pointerEvents=1;" parent="154" vertex="1">
                    <mxGeometry x="188" width="94" height="24" as="geometry">
                        <mxRectangle width="94" height="24" as="alternateBounds"/>
                    </mxGeometry>
                </mxCell>
                <mxCell id="158" value="" style="shape=tableRow;horizontal=0;startSize=0;swimlaneHead=0;swimlaneBody=0;top=0;left=0;bottom=0;right=0;collapsible=0;dropTarget=0;fillColor=none;points=[[0,0.5],[1,0.5]];portConstraint=eastwest;" parent="153" vertex="1">
                    <mxGeometry y="24" width="282" height="24" as="geometry"/>
                </mxCell>
                <mxCell id="159" value="START_F" style="shape=partialRectangle;html=1;whiteSpace=wrap;connectable=0;overflow=hidden;fillColor=none;top=0;left=0;bottom=0;right=0;pointerEvents=1;" parent="158" vertex="1">
                    <mxGeometry width="96" height="24" as="geometry">
                        <mxRectangle width="96" height="24" as="alternateBounds"/>
                    </mxGeometry>
                </mxCell>
                <mxCell id="160" value="1b" style="shape=partialRectangle;html=1;whiteSpace=wrap;connectable=0;overflow=hidden;fillColor=none;top=0;left=0;bottom=0;right=0;pointerEvents=1;" parent="158" vertex="1">
                    <mxGeometry x="96" width="92" height="24" as="geometry">
                        <mxRectangle width="92" height="24" as="alternateBounds"/>
                    </mxGeometry>
                </mxCell>
                <mxCell id="161" value="0xFA" style="shape=partialRectangle;html=1;whiteSpace=wrap;connectable=0;overflow=hidden;fillColor=none;top=0;left=0;bottom=0;right=0;pointerEvents=1;" parent="158" vertex="1">
                    <mxGeometry x="188" width="94" height="24" as="geometry">
                        <mxRectangle width="94" height="24" as="alternateBounds"/>
                    </mxGeometry>
                </mxCell>
                <mxCell id="162" value="" style="shape=tableRow;horizontal=0;startSize=0;swimlaneHead=0;swimlaneBody=0;top=0;left=0;bottom=0;right=0;collapsible=0;dropTarget=0;fillColor=none;points=[[0,0.5],[1,0.5]];portConstraint=eastwest;" parent="153" vertex="1">
                    <mxGeometry y="48" width="282" height="23" as="geometry"/>
                </mxCell>
                <mxCell id="163" value="d_PIN_CNT" style="shape=partialRectangle;html=1;whiteSpace=wrap;connectable=0;overflow=hidden;fillColor=none;top=0;left=0;bottom=0;right=0;pointerEvents=1;" parent="162" vertex="1">
                    <mxGeometry width="96" height="23" as="geometry">
                        <mxRectangle width="96" height="23" as="alternateBounds"/>
                    </mxGeometry>
                </mxCell>
                <mxCell id="164" value="1b" style="shape=partialRectangle;html=1;whiteSpace=wrap;connectable=0;overflow=hidden;fillColor=none;top=0;left=0;bottom=0;right=0;pointerEvents=1;" parent="162" vertex="1">
                    <mxGeometry x="96" width="92" height="23" as="geometry">
                        <mxRectangle width="92" height="23" as="alternateBounds"/>
                    </mxGeometry>
                </mxCell>
                <mxCell id="165" value="-" style="shape=partialRectangle;html=1;whiteSpace=wrap;connectable=0;overflow=hidden;fillColor=none;top=0;left=0;bottom=0;right=0;pointerEvents=1;" parent="162" vertex="1">
                    <mxGeometry x="188" width="94" height="23" as="geometry">
                        <mxRectangle width="94" height="23" as="alternateBounds"/>
                    </mxGeometry>
                </mxCell>
                <mxCell id="166" value="" style="shape=tableRow;horizontal=0;startSize=0;swimlaneHead=0;swimlaneBody=0;top=0;left=0;bottom=0;right=0;collapsible=0;dropTarget=0;fillColor=none;points=[[0,0.5],[1,0.5]];portConstraint=eastwest;" parent="153" vertex="1">
                    <mxGeometry y="71" width="282" height="24" as="geometry"/>
                </mxCell>
                <mxCell id="167" value="PIN_CFG[ ]" style="shape=partialRectangle;html=1;whiteSpace=wrap;connectable=0;overflow=hidden;fillColor=none;top=0;left=0;bottom=0;right=0;pointerEvents=1;" parent="166" vertex="1">
                    <mxGeometry width="96" height="24" as="geometry">
                        <mxRectangle width="96" height="24" as="alternateBounds"/>
                    </mxGeometry>
                </mxCell>
                <mxCell id="168" value="3b * d_PIN_CNT" style="shape=partialRectangle;html=1;whiteSpace=wrap;connectable=0;overflow=hidden;fillColor=none;top=0;left=0;bottom=0;right=0;pointerEvents=1;" parent="166" vertex="1">
                    <mxGeometry x="96" width="92" height="24" as="geometry">
                        <mxRectangle width="92" height="24" as="alternateBounds"/>
                    </mxGeometry>
                </mxCell>
                <mxCell id="169" value="" style="shape=partialRectangle;html=1;whiteSpace=wrap;connectable=0;overflow=hidden;fillColor=none;top=0;left=0;bottom=0;right=0;pointerEvents=1;" parent="166" vertex="1">
                    <mxGeometry x="188" width="94" height="24" as="geometry">
                        <mxRectangle width="94" height="24" as="alternateBounds"/>
                    </mxGeometry>
                </mxCell>
                <mxCell id="178" value="" style="shape=tableRow;horizontal=0;startSize=0;swimlaneHead=0;swimlaneBody=0;top=0;left=0;bottom=0;right=0;collapsible=0;dropTarget=0;fillColor=none;points=[[0,0.5],[1,0.5]];portConstraint=eastwest;" parent="153" vertex="1">
                    <mxGeometry y="95" width="282" height="23" as="geometry"/>
                </mxCell>
                <mxCell id="179" value="CRC" style="shape=partialRectangle;html=1;whiteSpace=wrap;connectable=0;overflow=hidden;fillColor=none;top=0;left=0;bottom=0;right=0;pointerEvents=1;" parent="178" vertex="1">
                    <mxGeometry width="96" height="23" as="geometry">
                        <mxRectangle width="96" height="23" as="alternateBounds"/>
                    </mxGeometry>
                </mxCell>
                <mxCell id="180" value="" style="shape=partialRectangle;html=1;whiteSpace=wrap;connectable=0;overflow=hidden;fillColor=none;top=0;left=0;bottom=0;right=0;pointerEvents=1;" parent="178" vertex="1">
                    <mxGeometry x="96" width="92" height="23" as="geometry">
                        <mxRectangle width="92" height="23" as="alternateBounds"/>
                    </mxGeometry>
                </mxCell>
                <mxCell id="181" value="" style="shape=partialRectangle;html=1;whiteSpace=wrap;connectable=0;overflow=hidden;fillColor=none;top=0;left=0;bottom=0;right=0;pointerEvents=1;" parent="178" vertex="1">
                    <mxGeometry x="188" width="94" height="23" as="geometry">
                        <mxRectangle width="94" height="23" as="alternateBounds"/>
                    </mxGeometry>
                </mxCell>
                <mxCell id="182" value="" style="shape=tableRow;horizontal=0;startSize=0;swimlaneHead=0;swimlaneBody=0;top=0;left=0;bottom=0;right=0;collapsible=0;dropTarget=0;fillColor=none;points=[[0,0.5],[1,0.5]];portConstraint=eastwest;" parent="153" vertex="1">
                    <mxGeometry y="118" width="282" height="24" as="geometry"/>
                </mxCell>
                <mxCell id="183" value="END_F" style="shape=partialRectangle;html=1;whiteSpace=wrap;connectable=0;overflow=hidden;fillColor=none;top=0;left=0;bottom=0;right=0;pointerEvents=1;" parent="182" vertex="1">
                    <mxGeometry width="96" height="24" as="geometry">
                        <mxRectangle width="96" height="24" as="alternateBounds"/>
                    </mxGeometry>
                </mxCell>
                <mxCell id="184" value="1b" style="shape=partialRectangle;html=1;whiteSpace=wrap;connectable=0;overflow=hidden;fillColor=none;top=0;left=0;bottom=0;right=0;pointerEvents=1;" parent="182" vertex="1">
                    <mxGeometry x="96" width="92" height="24" as="geometry">
                        <mxRectangle width="92" height="24" as="alternateBounds"/>
                    </mxGeometry>
                </mxCell>
                <mxCell id="185" value="0xAF" style="shape=partialRectangle;html=1;whiteSpace=wrap;connectable=0;overflow=hidden;fillColor=none;top=0;left=0;bottom=0;right=0;pointerEvents=1;" parent="182" vertex="1">
                    <mxGeometry x="188" width="94" height="24" as="geometry">
                        <mxRectangle width="94" height="24" as="alternateBounds"/>
                    </mxGeometry>
                </mxCell>
                <mxCell id="186" value="Структура сообщения конфигации вывода PIN_CFG_t" style="text;html=1;strokeColor=none;fillColor=none;align=center;verticalAlign=middle;whiteSpace=wrap;rounded=0;" parent="1" vertex="1">
                    <mxGeometry x="600" y="252" width="150" height="30" as="geometry"/>
                </mxCell>
                <mxCell id="187" value="" style="shape=table;startSize=0;container=1;collapsible=0;childLayout=tableLayout;" parent="1" vertex="1">
                    <mxGeometry x="550" y="302" width="250" height="86" as="geometry"/>
                </mxCell>
                <mxCell id="188" value="" style="shape=tableRow;horizontal=0;startSize=0;swimlaneHead=0;swimlaneBody=0;top=0;left=0;bottom=0;right=0;collapsible=0;dropTarget=0;fillColor=none;points=[[0,0.5],[1,0.5]];portConstraint=eastwest;" parent="187" vertex="1">
                    <mxGeometry width="250" height="20" as="geometry"/>
                </mxCell>
                <mxCell id="189" value="ID" style="shape=partialRectangle;html=1;whiteSpace=wrap;connectable=0;overflow=hidden;fillColor=none;top=0;left=0;bottom=0;right=0;pointerEvents=1;" parent="188" vertex="1">
                    <mxGeometry width="100" height="20" as="geometry">
                        <mxRectangle width="100" height="20" as="alternateBounds"/>
                    </mxGeometry>
                </mxCell>
                <mxCell id="190" value="SIZE" style="shape=partialRectangle;html=1;whiteSpace=wrap;connectable=0;overflow=hidden;fillColor=none;top=0;left=0;bottom=0;right=0;pointerEvents=1;" parent="188" vertex="1">
                    <mxGeometry x="100" width="70" height="20" as="geometry">
                        <mxRectangle width="70" height="20" as="alternateBounds"/>
                    </mxGeometry>
                </mxCell>
                <mxCell id="191" value="DATA" style="shape=partialRectangle;html=1;whiteSpace=wrap;connectable=0;overflow=hidden;fillColor=none;top=0;left=0;bottom=0;right=0;pointerEvents=1;" parent="188" vertex="1">
                    <mxGeometry x="170" width="80" height="20" as="geometry">
                        <mxRectangle width="80" height="20" as="alternateBounds"/>
                    </mxGeometry>
                </mxCell>
                <mxCell id="192" value="" style="shape=tableRow;horizontal=0;startSize=0;swimlaneHead=0;swimlaneBody=0;top=0;left=0;bottom=0;right=0;collapsible=0;dropTarget=0;fillColor=none;points=[[0,0.5],[1,0.5]];portConstraint=eastwest;" parent="187" vertex="1">
                    <mxGeometry y="20" width="250" height="20" as="geometry"/>
                </mxCell>
                <mxCell id="193" value="PIN_N" style="shape=partialRectangle;html=1;whiteSpace=wrap;connectable=0;overflow=hidden;fillColor=none;top=0;left=0;bottom=0;right=0;pointerEvents=1;" parent="192" vertex="1">
                    <mxGeometry width="100" height="20" as="geometry">
                        <mxRectangle width="100" height="20" as="alternateBounds"/>
                    </mxGeometry>
                </mxCell>
                <mxCell id="194" value="1b" style="shape=partialRectangle;html=1;whiteSpace=wrap;connectable=0;overflow=hidden;fillColor=none;top=0;left=0;bottom=0;right=0;pointerEvents=1;" parent="192" vertex="1">
                    <mxGeometry x="100" width="70" height="20" as="geometry">
                        <mxRectangle width="70" height="20" as="alternateBounds"/>
                    </mxGeometry>
                </mxCell>
                <mxCell id="195" value="" style="shape=partialRectangle;html=1;whiteSpace=wrap;connectable=0;overflow=hidden;fillColor=none;top=0;left=0;bottom=0;right=0;pointerEvents=1;" parent="192" vertex="1">
                    <mxGeometry x="170" width="80" height="20" as="geometry">
                        <mxRectangle width="80" height="20" as="alternateBounds"/>
                    </mxGeometry>
                </mxCell>
                <mxCell id="196" value="" style="shape=tableRow;horizontal=0;startSize=0;swimlaneHead=0;swimlaneBody=0;top=0;left=0;bottom=0;right=0;collapsible=0;dropTarget=0;fillColor=none;points=[[0,0.5],[1,0.5]];portConstraint=eastwest;" parent="187" vertex="1">
                    <mxGeometry y="40" width="250" height="22" as="geometry"/>
                </mxCell>
                <mxCell id="197" value="PIN_D_MODE" style="shape=partialRectangle;html=1;whiteSpace=wrap;connectable=0;overflow=hidden;fillColor=none;top=0;left=0;bottom=0;right=0;pointerEvents=1;" parent="196" vertex="1">
                    <mxGeometry width="100" height="22" as="geometry">
                        <mxRectangle width="100" height="22" as="alternateBounds"/>
                    </mxGeometry>
                </mxCell>
                <mxCell id="198" value="1b" style="shape=partialRectangle;html=1;whiteSpace=wrap;connectable=0;overflow=hidden;fillColor=none;top=0;left=0;bottom=0;right=0;pointerEvents=1;" parent="196" vertex="1">
                    <mxGeometry x="100" width="70" height="22" as="geometry">
                        <mxRectangle width="70" height="22" as="alternateBounds"/>
                    </mxGeometry>
                </mxCell>
                <mxCell id="199" value="" style="shape=partialRectangle;html=1;whiteSpace=wrap;connectable=0;overflow=hidden;fillColor=none;top=0;left=0;bottom=0;right=0;pointerEvents=1;" parent="196" vertex="1">
                    <mxGeometry x="170" width="80" height="22" as="geometry">
                        <mxRectangle width="80" height="22" as="alternateBounds"/>
                    </mxGeometry>
                </mxCell>
                <mxCell id="200" value="" style="shape=tableRow;horizontal=0;startSize=0;swimlaneHead=0;swimlaneBody=0;top=0;left=0;bottom=0;right=0;collapsible=0;dropTarget=0;fillColor=none;points=[[0,0.5],[1,0.5]];portConstraint=eastwest;" parent="187" vertex="1">
                    <mxGeometry y="62" width="250" height="24" as="geometry"/>
                </mxCell>
                <mxCell id="201" value="PIN_TYPE" style="shape=partialRectangle;html=1;whiteSpace=wrap;connectable=0;overflow=hidden;fillColor=none;top=0;left=0;bottom=0;right=0;pointerEvents=1;" parent="200" vertex="1">
                    <mxGeometry width="100" height="24" as="geometry">
                        <mxRectangle width="100" height="24" as="alternateBounds"/>
                    </mxGeometry>
                </mxCell>
                <mxCell id="202" value="1b" style="shape=partialRectangle;html=1;whiteSpace=wrap;connectable=0;overflow=hidden;fillColor=none;top=0;left=0;bottom=0;right=0;pointerEvents=1;" parent="200" vertex="1">
                    <mxGeometry x="100" width="70" height="24" as="geometry">
                        <mxRectangle width="70" height="24" as="alternateBounds"/>
                    </mxGeometry>
                </mxCell>
                <mxCell id="203" value="" style="shape=partialRectangle;html=1;whiteSpace=wrap;connectable=0;overflow=hidden;fillColor=none;top=0;left=0;bottom=0;right=0;pointerEvents=1;" parent="200" vertex="1">
                    <mxGeometry x="170" width="80" height="24" as="geometry">
                        <mxRectangle width="80" height="24" as="alternateBounds"/>
                    </mxGeometry>
                </mxCell>
                <mxCell id="242" value="Начало" style="html=1;dashed=0;whitespace=wrap;shape=mxgraph.dfd.start" parent="1" vertex="1">
                    <mxGeometry x="110" y="262" width="80" height="30" as="geometry"/>
                </mxCell>
                <mxCell id="243" value="Инициализация&lt;br&gt;переферии и &lt;br&gt;интерфейсов" style="html=1;dashed=0;whitespace=wrap;" parent="1" vertex="1">
                    <mxGeometry x="100" y="332" width="100" height="50" as="geometry"/>
                </mxCell>
                <mxCell id="245" value="Чтение адреса&lt;br&gt;(не реализовано)" style="html=1;dashed=0;whitespace=wrap;" parent="1" vertex="1">
                    <mxGeometry x="100" y="412" width="100" height="50" as="geometry"/>
                </mxCell>
                <mxCell id="246" value="Прием&lt;br&gt;конфигурации" style="html=1;dashed=0;whitespace=wrap;" parent="1" vertex="1">
                    <mxGeometry x="100" y="492" width="100" height="50" as="geometry"/>
                </mxCell>
                <mxCell id="247" value="Конфигурация&lt;br&gt;корректна?" style="shape=rhombus;html=1;dashed=0;whitespace=wrap;perimeter=rhombusPerimeter;" parent="1" vertex="1">
                    <mxGeometry x="75" y="582" width="150" height="80" as="geometry"/>
                </mxCell>
                <mxCell id="248" value="" style="endArrow=classic;html=1;exitX=1;exitY=0.5;exitDx=0;exitDy=0;" parent="1" source="247" edge="1">
                    <mxGeometry width="50" height="50" relative="1" as="geometry">
                        <mxPoint x="230" y="512" as="sourcePoint"/>
                        <mxPoint x="150" y="472" as="targetPoint"/>
                        <Array as="points">
                            <mxPoint x="330" y="622"/>
                            <mxPoint x="330" y="472"/>
                        </Array>
                    </mxGeometry>
                </mxCell>
                <mxCell id="253" value="Нет" style="edgeLabel;html=1;align=center;verticalAlign=middle;resizable=0;points=[];" parent="248" vertex="1" connectable="0">
                    <mxGeometry x="-0.8404" y="1" relative="1" as="geometry">
                        <mxPoint as="offset"/>
                    </mxGeometry>
                </mxCell>
                <mxCell id="249" value="" style="endArrow=classic;html=1;exitX=0.5;exitY=0.5;exitDx=0;exitDy=15;exitPerimeter=0;entryX=0.5;entryY=0;entryDx=0;entryDy=0;" parent="1" source="242" target="243" edge="1">
                    <mxGeometry width="50" height="50" relative="1" as="geometry">
                        <mxPoint x="230" y="332" as="sourcePoint"/>
                        <mxPoint x="280" y="282" as="targetPoint"/>
                    </mxGeometry>
                </mxCell>
                <mxCell id="250" value="" style="endArrow=classic;html=1;exitX=0.5;exitY=1;exitDx=0;exitDy=0;entryX=0.5;entryY=0;entryDx=0;entryDy=0;" parent="1" source="243" target="245" edge="1">
                    <mxGeometry width="50" height="50" relative="1" as="geometry">
                        <mxPoint x="230" y="332" as="sourcePoint"/>
                        <mxPoint x="280" y="282" as="targetPoint"/>
                    </mxGeometry>
                </mxCell>
                <mxCell id="251" value="" style="endArrow=classic;html=1;exitX=0.5;exitY=1;exitDx=0;exitDy=0;entryX=0.5;entryY=0;entryDx=0;entryDy=0;" parent="1" source="245" target="246" edge="1">
                    <mxGeometry width="50" height="50" relative="1" as="geometry">
                        <mxPoint x="230" y="422" as="sourcePoint"/>
                        <mxPoint x="280" y="372" as="targetPoint"/>
                    </mxGeometry>
                </mxCell>
                <mxCell id="252" value="" style="endArrow=classic;html=1;exitX=0.5;exitY=1;exitDx=0;exitDy=0;" parent="1" source="246" target="247" edge="1">
                    <mxGeometry width="50" height="50" relative="1" as="geometry">
                        <mxPoint x="200" y="572" as="sourcePoint"/>
                        <mxPoint x="250" y="522" as="targetPoint"/>
                    </mxGeometry>
                </mxCell>
                <mxCell id="254" value="" style="endArrow=classic;html=1;exitX=0.5;exitY=1;exitDx=0;exitDy=0;" parent="1" source="247" edge="1">
                    <mxGeometry width="50" height="50" relative="1" as="geometry">
                        <mxPoint x="290" y="602" as="sourcePoint"/>
                        <mxPoint x="150" y="712" as="targetPoint"/>
                    </mxGeometry>
                </mxCell>
                <mxCell id="255" value="Да" style="edgeLabel;html=1;align=center;verticalAlign=middle;resizable=0;points=[];" parent="254" vertex="1" connectable="0">
                    <mxGeometry x="-0.4234" y="-2" relative="1" as="geometry">
                        <mxPoint x="2" as="offset"/>
                    </mxGeometry>
                </mxCell>
                <mxCell id="256" value="А" style="shape=ellipse;html=1;dashed=0;whitespace=wrap;aspect=fixed;perimeter=ellipsePerimeter;" parent="1" vertex="1">
                    <mxGeometry x="135" y="712" width="30" height="30" as="geometry"/>
                </mxCell>
                <mxCell id="257" value="А" style="shape=ellipse;html=1;dashed=0;whitespace=wrap;aspect=fixed;perimeter=ellipsePerimeter;" parent="1" vertex="1">
                    <mxGeometry x="416" y="286" width="30" height="30" as="geometry"/>
                </mxCell>
                <mxCell id="272" style="edgeStyle=none;html=1;" parent="1" source="260" edge="1">
                    <mxGeometry relative="1" as="geometry">
                        <mxPoint x="431" y="396" as="targetPoint"/>
                        <Array as="points">
                            <mxPoint x="536" y="591"/>
                            <mxPoint x="536" y="396"/>
                        </Array>
                    </mxGeometry>
                </mxCell>
                <mxCell id="260" value="i &amp;lt; PINS_CNT" style="shape=rhombus;html=1;dashed=0;whitespace=wrap;perimeter=rhombusPerimeter;" parent="1" vertex="1">
                    <mxGeometry x="368.5" y="566" width="125" height="50" as="geometry"/>
                </mxCell>
                <mxCell id="261" value="i = 0" style="html=1;dashed=0;whitespace=wrap;" parent="1" vertex="1">
                    <mxGeometry x="381" y="336" width="100" height="50" as="geometry"/>
                </mxCell>
                <mxCell id="265" value="Конфигурация&lt;br&gt;пина i" style="html=1;dashed=0;whitespace=wrap;" parent="1" vertex="1">
                    <mxGeometry x="381" y="416" width="100" height="50" as="geometry"/>
                </mxCell>
                <mxCell id="271" style="edgeStyle=none;html=1;entryX=0.5;entryY=0;entryDx=0;entryDy=0;" parent="1" source="266" target="260" edge="1">
                    <mxGeometry relative="1" as="geometry"/>
                </mxCell>
                <mxCell id="266" value="++i" style="html=1;dashed=0;whitespace=wrap;" parent="1" vertex="1">
                    <mxGeometry x="381" y="496" width="100" height="50" as="geometry"/>
                </mxCell>
                <mxCell id="267" value="" style="endArrow=classic;html=1;exitX=0.5;exitY=1;exitDx=0;exitDy=0;" parent="1" source="257" edge="1">
                    <mxGeometry width="50" height="50" relative="1" as="geometry">
                        <mxPoint x="386" y="536" as="sourcePoint"/>
                        <mxPoint x="431" y="336" as="targetPoint"/>
                    </mxGeometry>
                </mxCell>
                <mxCell id="268" value="" style="endArrow=classic;html=1;exitX=0.5;exitY=1;exitDx=0;exitDy=0;" parent="1" source="261" edge="1">
                    <mxGeometry width="50" height="50" relative="1" as="geometry">
                        <mxPoint x="386" y="536" as="sourcePoint"/>
                        <mxPoint x="431" y="416" as="targetPoint"/>
                    </mxGeometry>
                </mxCell>
                <mxCell id="269" value="" style="endArrow=classic;html=1;exitX=0.5;exitY=1;exitDx=0;exitDy=0;entryX=0.5;entryY=0;entryDx=0;entryDy=0;" parent="1" source="265" target="266" edge="1">
                    <mxGeometry width="50" height="50" relative="1" as="geometry">
                        <mxPoint x="386" y="536" as="sourcePoint"/>
                        <mxPoint x="436" y="486" as="targetPoint"/>
                    </mxGeometry>
                </mxCell>
                <mxCell id="291" value="" style="endArrow=classic;html=1;exitX=0.5;exitY=1;exitDx=0;exitDy=0;entryX=0.5;entryY=0;entryDx=0;entryDy=0;" parent="1" target="297" edge="1">
                    <mxGeometry width="50" height="50" relative="1" as="geometry">
                        <mxPoint x="431" y="616" as="sourcePoint"/>
                        <mxPoint x="430.5" y="696" as="targetPoint"/>
                    </mxGeometry>
                </mxCell>
                <mxCell id="294" value="1" style="shape=rhombus;html=1;dashed=0;whitespace=wrap;perimeter=rhombusPerimeter;" parent="1" vertex="1">
                    <mxGeometry x="401" y="1106" width="60" height="50" as="geometry"/>
                </mxCell>
                <mxCell id="371" style="edgeStyle=none;html=1;entryX=0.5;entryY=0;entryDx=0;entryDy=0;" parent="1" source="296" edge="1">
                    <mxGeometry relative="1" as="geometry">
                        <mxPoint x="431" y="804" as="targetPoint"/>
                    </mxGeometry>
                </mxCell>
                <mxCell id="296" value="Есть команда" style="shape=rhombus;html=1;dashed=0;whitespace=wrap;perimeter=rhombusPerimeter;" parent="1" vertex="1">
                    <mxGeometry x="378" y="650" width="105" height="70" as="geometry"/>
                </mxCell>
                <mxCell id="297" value="Реализация &lt;br&gt;функций i пина" style="html=1;dashed=0;whitespace=wrap;" parent="1" vertex="1">
                    <mxGeometry x="381" y="855" width="100" height="50" as="geometry"/>
                </mxCell>
                <mxCell id="298" value="i &amp;lt; DPINS" style="shape=rhombus;html=1;dashed=0;whitespace=wrap;perimeter=rhombusPerimeter;" parent="1" vertex="1">
                    <mxGeometry x="401" y="965" width="60" height="50" as="geometry"/>
                </mxCell>
                <mxCell id="300" value="" style="endArrow=classic;html=1;exitX=0.5;exitY=1;exitDx=0;exitDy=0;entryX=0.5;entryY=0;entryDx=0;entryDy=0;" parent="1" source="297" target="298" edge="1">
                    <mxGeometry width="50" height="50" relative="1" as="geometry">
                        <mxPoint x="476" y="1055" as="sourcePoint"/>
                        <mxPoint x="526" y="1005" as="targetPoint"/>
                    </mxGeometry>
                </mxCell>
                <mxCell id="301" value="" style="endArrow=classic;html=1;exitX=1;exitY=0.5;exitDx=0;exitDy=0;" parent="1" source="298" edge="1">
                    <mxGeometry width="50" height="50" relative="1" as="geometry">
                        <mxPoint x="445.5" y="872" as="sourcePoint"/>
                        <mxPoint x="431" y="810" as="targetPoint"/>
                        <Array as="points">
                            <mxPoint x="540" y="990"/>
                            <mxPoint x="540" y="810"/>
                        </Array>
                    </mxGeometry>
                </mxCell>
                <mxCell id="302" value="" style="endArrow=classic;html=1;exitX=1;exitY=0.5;exitDx=0;exitDy=0;entryX=0.5;entryY=0;entryDx=0;entryDy=0;" parent="1" source="296" target="311" edge="1">
                    <mxGeometry width="50" height="50" relative="1" as="geometry">
                        <mxPoint x="515.5" y="740" as="sourcePoint"/>
                        <mxPoint x="535.5" y="750" as="targetPoint"/>
                        <Array as="points">
                            <mxPoint x="535.5" y="685"/>
                        </Array>
                    </mxGeometry>
                </mxCell>
                <mxCell id="311" value="Реализация" style="html=1;dashed=0;whitespace=wrap;" parent="1" vertex="1">
                    <mxGeometry x="488" y="706" width="100" height="50" as="geometry"/>
                </mxCell>
                <mxCell id="313" value="" style="endArrow=classic;html=1;entryX=0.5;entryY=0;entryDx=0;entryDy=0;" parent="1" edge="1">
                    <mxGeometry width="50" height="50" relative="1" as="geometry">
                        <mxPoint x="540" y="758" as="sourcePoint"/>
                        <mxPoint x="431" y="804" as="targetPoint"/>
                        <Array as="points">
                            <mxPoint x="536" y="764"/>
                            <mxPoint x="431" y="764"/>
                        </Array>
                    </mxGeometry>
                </mxCell>
                <mxCell id="315" value="" style="endArrow=classic;html=1;exitX=0.5;exitY=1;exitDx=0;exitDy=0;entryX=0.5;entryY=0;entryDx=0;entryDy=0;" parent="1" source="298" target="368" edge="1">
                    <mxGeometry width="50" height="50" relative="1" as="geometry">
                        <mxPoint x="495.5" y="1132" as="sourcePoint"/>
                        <mxPoint x="545.5" y="1082" as="targetPoint"/>
                    </mxGeometry>
                </mxCell>
                <mxCell id="317" value="" style="endArrow=classic;html=1;exitX=1;exitY=0.5;exitDx=0;exitDy=0;" parent="1" source="294" edge="1">
                    <mxGeometry width="50" height="50" relative="1" as="geometry">
                        <mxPoint x="655.5" y="1162" as="sourcePoint"/>
                        <mxPoint x="430" y="642" as="targetPoint"/>
                        <Array as="points">
                            <mxPoint x="756" y="1130"/>
                            <mxPoint x="755.5" y="642"/>
                        </Array>
                    </mxGeometry>
                </mxCell>
                <mxCell id="367" value="" style="endArrow=classic;html=1;exitX=1;exitY=0;exitDx=0;exitDy=0;entryX=-0.002;entryY=1.209;entryDx=0;entryDy=0;entryPerimeter=0;" parent="1" source="246" target="182" edge="1">
                    <mxGeometry width="50" height="50" relative="1" as="geometry">
                        <mxPoint x="330" y="472" as="sourcePoint"/>
                        <mxPoint x="380" y="422" as="targetPoint"/>
                    </mxGeometry>
                </mxCell>
                <mxCell id="369" value="" style="edgeStyle=none;html=1;" parent="1" source="368" target="294" edge="1">
                    <mxGeometry relative="1" as="geometry"/>
                </mxCell>
                <mxCell id="368" value="Отправка&lt;br&gt;состояния" style="html=1;dashed=0;whitespace=wrap;" parent="1" vertex="1">
                    <mxGeometry x="381" y="1036" width="100" height="50" as="geometry"/>
                </mxCell>
                <mxCell id="370" value="" style="endArrow=classic;html=1;exitX=1;exitY=0.5;exitDx=0;exitDy=0;entryX=0.5;entryY=0;entryDx=0;entryDy=0;" parent="1" source="166" target="186" edge="1">
                    <mxGeometry width="50" height="50" relative="1" as="geometry">
                        <mxPoint x="500" y="332" as="sourcePoint"/>
                        <mxPoint x="550" y="282" as="targetPoint"/>
                    </mxGeometry>
                </mxCell>
            </root>
        </mxGraphModel>
    </diagram>
</mxfile>